<?xml version="1.0" standalone="no"?>
<!DOCTYPE svg PUBLIC "-//W3C//DTD SVG 20010904//EN"
 "http://www.w3.org/TR/2001/REC-SVG-20010904/DTD/svg10.dtd">
<svg version="1.0" xmlns="http://www.w3.org/2000/svg"
 width="583.000000pt" height="756.000000pt" viewBox="0 0 583.000000 756.000000"
 preserveAspectRatio="xMidYMid meet">

<g transform="translate(0.000000,756.000000) scale(0.100000,-0.100000)"
fill="#000000" stroke="none">
<path d="M2805 7199 c-489 -40 -988 -238 -1380 -547 -181 -143 -327 -293 -485
-497 -140 -182 -249 -365 -328 -555 -184 -440 -252 -828 -223 -1275 38 -579
196 -989 572 -1485 52 -69 234 -298 404 -510 170 -212 363 -452 428 -535 267
-334 698 -870 827 -1029 58 -71 126 -156 151 -190 53 -71 110 -123 143 -132
46 -11 100 30 190 143 47 60 111 140 142 178 31 39 74 93 96 120 81 102 215
269 288 359 41 51 131 164 200 250 185 232 200 249 230 267 15 10 32 31 38 48
11 31 68 107 272 361 556 695 672 851 798 1082 167 306 281 700 313 1073 34
400 -40 834 -211 1239 -143 340 -399 704 -669 951 -376 343 -846 580 -1296
654 -107 18 -357 43 -388 40 -7 -1 -57 -5 -112 -10z m276 -110 c247 -19 459
-67 674 -152 131 -52 44 -48 -205 10 -497 114 -865 106 -1265 -30 -241 -82
-417 -168 -603 -293 -161 -109 -258 -192 -414 -352 -296 -306 -483 -627 -631
-1081 -40 -125 -41 -126 -50 -88 -31 129 126 577 293 832 305 467 721 818
1184 1000 335 131 670 182 1017 154z m-3 -329 c181 -20 398 -82 555 -161 110
-55 327 -207 327 -228 0 -3 -16 -16 -36 -29 -31 -20 -38 -21 -54 -10 -125 90
-183 130 -226 151 -92 47 -264 107 -393 139 -118 29 -138 31 -321 32 -197 1
-277 -9 -195 -25 22 -4 49 -9 60 -11 11 -2 22 -5 25 -8 3 -3 26 -22 52 -42
158 -128 120 -368 -72 -456 -77 -36 -194 -35 -272 2 -113 54 -162 128 -163
249 -1 42 2 72 7 65 7 -12 12 4 11 39 -1 7 3 11 7 8 7 -5 35 44 32 58 -1 4 2
6 6 5 4 -2 25 12 47 30 48 39 38 40 -57 6 -117 -42 -236 -101 -338 -169 -100
-66 -310 -257 -310 -282 0 -8 -3 -12 -8 -9 -9 6 -115 -136 -167 -224 -21 -36
-53 -101 -70 -145 l-33 -80 -46 -3 c-25 -2 -46 -1 -46 1 0 16 54 156 84 217
47 95 67 128 135 220 240 330 541 531 935 625 181 44 340 54 524 35z m-828
-535 c49 -25 70 -62 70 -120 0 -85 -54 -135 -146 -135 -41 0 -51 5 -85 39 -34
34 -39 44 -39 86 0 62 25 114 64 131 41 18 100 17 136 -1z m1960 -120 c0 -7
-10 -17 -22 -22 -60 -28 -280 -196 -413 -315 -82 -72 -301 -285 -486 -473
l-338 -340 -22 22 -22 22 109 117 c512 549 767 789 1054 991 l85 60 28 -25
c15 -14 27 -31 27 -37z m-2495 -715 c159 -30 342 -97 495 -180 85 -46 289
-195 297 -216 3 -8 -3 -24 -13 -35 -17 -19 -18 -19 -48 10 -49 46 -211 148
-330 208 -203 102 -416 159 -639 170 -70 3 -130 10 -133 15 -3 4 -2 18 1 30 7
21 10 21 159 15 83 -3 178 -11 211 -17z m-664 -66 c-7 -36 -10 -69 -7 -72 3
-3 2 -10 -3 -16 -4 -6 -4 -80 0 -164 16 -275 82 -523 200 -750 82 -157 124
-222 225 -341 302 -361 750 -601 1223 -656 408 -48 816 37 1211 253 69 38 159
87 200 110 41 22 161 75 265 117 293 118 536 249 656 355 l47 40 31 -25 c32
-28 48 -77 37 -120 -24 -97 -291 -267 -751 -477 -202 -93 -276 -109 -341 -75
-31 16 -33 16 -67 -11 -39 -29 -46 -42 -22 -42 9 0 20 10 25 23 8 21 9 21 9 2
1 -12 -4 -26 -9 -31 -14 -14 -21 -54 -10 -54 5 0 10 10 12 23 3 18 4 19 10 5
4 -9 1 -24 -7 -34 -11 -15 -15 -16 -29 -5 -14 12 -16 11 -16 -7 0 -30 16 -36
40 -12 11 11 27 20 35 20 9 0 0 -14 -22 -33 -57 -50 -129 -92 -89 -52 8 8 19
15 25 15 5 0 13 6 17 13 4 6 3 9 -1 4 -11 -9 -36 49 -29 67 4 10 -2 12 -20 9
-14 -3 -27 -10 -27 -17 -1 -6 -2 -15 -4 -21 -1 -5 -3 -18 -3 -27 -1 -10 -7
-18 -13 -18 -5 0 -7 5 -4 11 4 6 -3 13 -15 16 -21 6 -21 6 7 29 22 18 24 23
11 24 -10 0 -18 -4 -18 -8 0 -5 -12 -15 -26 -22 -17 -10 -24 -20 -20 -33 3
-14 1 -16 -8 -7 -18 14 -50 -1 -156 -71 -99 -65 -333 -179 -368 -179 -5 0 -31
-10 -58 -22 -27 -12 -58 -23 -68 -25 -11 -2 -33 -10 -49 -18 -17 -8 -40 -15
-52 -15 -19 0 -54 -9 -105 -27 -8 -3 -26 -6 -40 -7 -14 -1 -65 -8 -115 -16
-73 -12 -84 -16 -60 -21 l30 -7 -32 -1 c-17 0 -34 -7 -36 -13 -3 -7 -6 -2 -6
11 -1 19 -5 22 -23 17 -13 -4 -60 -10 -105 -13 -85 -6 -99 -14 -62 -34 16 -8
23 -8 29 1 9 14 161 4 171 -11 3 -5 20 -6 37 -3 22 5 32 12 32 25 0 11 4 19 9
19 13 0 20 -25 15 -54 -5 -28 5 -31 96 -28 31 1 32 0 10 -7 -33 -10 -141 -22
-115 -12 35 14 -22 21 -146 17 -63 -2 -95 -1 -71 1 53 5 55 23 2 23 -22 0 -40
-4 -40 -10 0 -5 -14 -10 -32 -10 -69 0 -14 -12 89 -19 l108 -8 -165 -1 c-93
-1 -159 2 -152 7 11 7 10 10 -3 15 -9 3 -24 6 -33 5 -10 -1 -7 -4 8 -9 23 -7
23 -8 -9 -9 -19 -1 -32 -3 -29 -7 9 -8 55 -12 213 -14 110 -2 139 -5 110 -11
-66 -13 -229 -10 -322 6 -118 21 -164 33 -135 34 12 1 22 5 22 11 0 5 6 7 14
4 8 -3 23 -1 33 5 16 9 16 10 1 11 -14 0 -16 5 -9 22 10 28 42 48 48 31 3 -8
22 -13 44 -13 34 0 39 -3 40 -22 0 -13 3 -17 6 -10 9 22 33 13 33 -13 0 -17 6
-25 18 -25 17 0 17 4 13 78 -1 8 -20 12 -58 13 -50 0 -117 15 -88 19 6 1 1 5
-10 9 -11 5 -30 4 -43 -2 -25 -12 -44 -1 -22 13 13 8 12 10 -2 10 -47 0 -64
20 -76 88 -32 191 -195 367 -386 418 -61 16 -160 17 -236 1 l-55 -12 -41 40
c-119 118 -246 293 -296 410 -51 117 -117 299 -134 370 -16 66 -36 200 -35
235 0 25 -4 78 -9 118 -8 60 -7 78 5 102 17 33 19 44 7 36 -5 -3 -7 50 -5 117
3 115 15 188 50 316 17 62 74 194 81 187 2 -3 -1 -35 -7 -72z m3763 -199 c4
-33 14 -87 23 -120 12 -46 16 -109 17 -265 1 -201 -9 -296 -45 -425 -17 -63
-86 -120 -237 -198 -73 -37 -132 -66 -132 -63 0 2 29 46 63 97 83 122 125 202
174 330 83 212 129 455 122 638 -4 98 4 101 15 6z m-2048 -391 c-3 -7 -18 -20
-35 -28 -27 -14 -31 -14 -45 0 -22 22 -20 34 11 66 l26 27 24 -25 c13 -15 22
-32 19 -40z m-1919 -166 c-3 -7 -5 -2 -5 12 0 14 2 19 5 13 2 -7 2 -19 0 -25z
m28 -393 c4 -22 14 -65 22 -95 8 -30 21 -80 28 -110 31 -125 165 -416 225
-487 5 -7 10 -17 10 -22 0 -5 12 -23 26 -40 14 -17 22 -31 17 -31 -4 0 -3 -4
3 -8 6 -4 19 -22 28 -39 14 -27 14 -33 2 -33 -7 0 -48 51 -91 113 -134 194
-234 445 -275 687 -16 97 -30 334 -22 377 5 25 9 -14 13 -117 3 -85 10 -173
14 -195z m850 -890 c67 -32 155 -119 184 -180 26 -56 41 -175 22 -175 -6 0
-11 -8 -12 -17 0 -10 -3 -13 -5 -7 -3 6 -19 10 -36 8 -49 -6 -96 29 -283 210
-27 26 -71 66 -97 88 -27 22 -48 44 -48 49 0 11 55 40 95 50 46 12 125 1 180
-26z m2750 -7 c-19 -64 -145 -248 -211 -310 -16 -14 -43 -41 -61 -60 -54 -56
-84 -82 -213 -183 -69 -54 -127 -100 -130 -104 -3 -3 -39 -28 -80 -56 -41 -27
-77 -52 -80 -55 -3 -3 -39 -32 -80 -65 -41 -32 -77 -61 -80 -65 -3 -3 -39 -32
-80 -65 -98 -79 -272 -252 -343 -342 -31 -40 -57 -74 -57 -77 0 -3 -15 -27
-34 -53 -34 -49 -76 -134 -101 -207 -8 -22 -18 -42 -23 -44 -5 -1 -7 -14 -4
-27 2 -13 -2 -37 -9 -54 -12 -26 -14 -28 -26 -13 -11 16 -12 16 -13 -1 0 -11
-5 -17 -12 -14 -7 2 -12 15 -11 28 2 23 2 23 -13 -3 -15 -29 -48 -40 -38 -13
4 8 10 15 15 15 5 0 9 7 9 15 0 22 -8 19 -39 -16 -21 -22 -34 -29 -49 -25 -16
5 -19 3 -15 -17 3 -13 -2 -40 -11 -61 -14 -35 -17 -36 -38 -24 l-23 13 28 3
c22 3 26 7 22 25 -3 12 -7 37 -9 55 -3 38 -1 37 -48 28 -53 -10 -57 -32 -4
-28 l41 4 -29 -31 c-35 -36 -46 -39 -53 -11 -6 24 -23 27 -23 3 0 -14 -4 -12
-25 7 -30 29 -33 13 -4 -24 12 -15 28 -25 35 -22 16 6 18 -12 5 -33 -7 -11
-10 -9 -16 8 -3 11 -11 21 -16 21 -5 0 -3 -14 6 -30 9 -17 13 -30 11 -30 -3 0
-12 14 -21 30 -9 17 -13 30 -10 30 3 0 -1 10 -9 23 -37 56 -49 242 -25 383 35
206 178 426 387 594 164 132 351 229 740 384 316 126 400 163 476 209 40 25
82 47 93 51 11 3 45 30 75 59 41 38 61 66 74 104 16 46 24 55 64 72 25 11 55
20 68 20 20 1 22 -3 17 -21z m216 -258 c-117 -196 -328 -428 -621 -683 -107
-94 -225 -200 -262 -236 -38 -36 -68 -59 -68 -52 0 20 86 137 150 205 30 32
131 124 225 205 221 190 441 412 535 538 41 56 77 100 79 98 2 -3 -15 -36 -38
-75z m-1344 -36 c-3 -3 -12 -4 -19 -1 -8 3 -5 6 6 6 11 1 17 -2 13 -5z m-534
-51 c-7 -2 -21 -2 -30 0 -10 3 -4 5 12 5 17 0 24 -2 18 -5z m-666 -45 c-3 -8
-6 -5 -6 6 -1 11 2 17 5 13 3 -3 4 -12 1 -19z m840 -24 c-3 -3 -12 -4 -19 -1
-8 3 -5 6 6 6 11 1 17 -2 13 -5z m-50 -15 c-14 -8 -22 -8 -30 0 -8 8 -3 11 19
11 25 -1 27 -2 11 -11z m-812 -9 c-3 -5 -12 -10 -18 -10 -7 0 -6 4 3 10 19 12
23 12 15 0z m484 -1499 c-1 -9 -5 -27 -9 -41 -8 -24 -8 -24 -9 -2 -1 12 -5 22
-11 22 -5 0 -7 -8 -4 -17 5 -15 4 -15 -4 -3 -7 9 -7 18 -1 26 5 6 7 18 3 27
-4 12 -1 14 15 10 12 -3 21 -13 20 -22z"/>
<path d="M3885 3420 c-3 -5 -1 -10 4 -10 6 0 11 5 11 10 0 6 -2 10 -4 10 -3 0
-8 -4 -11 -10z"/>
<path d="M2313 2933 c9 -2 23 -2 30 0 6 3 -1 5 -18 5 -16 0 -22 -2 -12 -5z"/>
<path d="M2188 2823 c7 -3 16 -2 19 1 4 3 -2 6 -13 5 -11 0 -14 -3 -6 -6z"/>
<path d="M3680 2700 c-9 -6 -10 -10 -3 -10 6 0 15 5 18 10 8 12 4 12 -15 0z"/>
<path d="M2741 1534 c0 -11 3 -14 6 -6 3 7 2 16 -1 19 -3 4 -6 -2 -5 -13z"/>
</g>
</svg>
